<svg width="50" height="50" viewBox="0 0 22 21" fill="none" xmlns="http://www.w3.org/2000/svg">
<path fill-rule="evenodd" clip-rule="evenodd" d="M1.02393 2.6249C1.02393 1.74018 1.73921 1.0249 2.61916 1.0249C3.49912 1.0249 4.2144 1.74018 4.2144 2.6249C4.2144 3.50963 3.49912 4.2249 2.61916 4.2249C1.73921 4.2249 1.02393 3.50963 1.02393 2.6249ZM2.61916 0.0249023C1.18478 0.0249023 0.0239258 1.19003 0.0239258 2.6249C0.0239258 4.05977 1.18478 5.2249 2.61916 5.2249C4.05354 5.2249 5.2144 4.05977 5.2144 2.6249C5.2144 1.19003 4.05354 0.0249023 2.61916 0.0249023ZM15.1906 7.3249C13.6565 7.3249 12.185 7.9357 11.0999 9.02328C10.0147 10.1109 9.40488 11.5863 9.40488 13.1249V19.9749H12.5954V13.1249C12.5954 12.4357 12.8685 11.7745 13.3551 11.2868C13.8417 10.7991 14.5019 10.5249 15.1906 10.5249C15.8793 10.5249 16.5395 10.7991 17.0261 11.2868C17.5127 11.7745 17.7858 12.4357 17.7858 13.1249V19.9749H20.9763V13.1249C20.9763 11.5863 20.3665 10.1109 19.2813 9.02328C18.1962 7.9357 16.7247 7.3249 15.1906 7.3249ZM15.1906 6.3249C13.3905 6.3249 11.6644 7.04161 10.392 8.31698C9.11952 9.59231 8.40488 11.3218 8.40488 13.1249V20.4749C8.40488 20.751 8.62874 20.9749 8.90488 20.9749H13.0954C13.3715 20.9749 13.5954 20.751 13.5954 20.4749V13.1249C13.5954 12.7002 13.7637 12.2931 14.063 11.9931C14.3622 11.6932 14.7679 11.5249 15.1906 11.5249C15.6133 11.5249 16.0189 11.6932 16.3182 11.9931C16.6175 12.2931 16.7858 12.7002 16.7858 13.1249V20.4749C16.7858 20.751 17.0097 20.9749 17.2858 20.9749H21.4763C21.7525 20.9749 21.9763 20.751 21.9763 20.4749V13.1249C21.9763 11.3218 21.2617 9.59231 19.9892 8.31698C18.7167 7.04161 16.9906 6.3249 15.1906 6.3249ZM0.0239258 7.8749C0.0239258 7.59876 0.247783 7.3749 0.523926 7.3749H4.7144C4.99054 7.3749 5.2144 7.59876 5.2144 7.8749V20.4749C5.2144 20.751 4.99054 20.9749 4.7144 20.9749H0.523926C0.247783 20.9749 0.0239258 20.751 0.0239258 20.4749V7.8749ZM1.02393 8.3749V19.9749H4.2144V8.3749H1.02393Z" fill="black"/>
</svg>
